<?xml version="1.0" standalone="no"?>
<!DOCTYPE svg PUBLIC "-//W3C//DTD SVG 20010904//EN"
 "http://www.w3.org/TR/2001/REC-SVG-20010904/DTD/svg10.dtd">
<svg version="1.0" xmlns="http://www.w3.org/2000/svg"
 width="155.000000pt" height="155.000000pt" viewBox="0 0 155.000000 155.000000"
 preserveAspectRatio="xMidYMid meet">
<metadata>
Created by potrace 1.14, written by Peter Selinger 2001-2017
</metadata>
<g transform="translate(0.000000,155.000000) scale(0.100000,-0.100000)"
fill="#000000" stroke="none">
<path d="M346 1241 c-2 -3 91 -170 206 -371 115 -201 223 -390 240 -420 66
-118 80 -140 88 -135 5 3 29 42 54 88 26 45 58 102 72 127 92 159 396 694 400
704 4 10 -110 12 -526 12 -292 1 -532 -2 -534 -5z"/>
<path d="M362 903 c-99 -171 -211 -369 -216 -383 -5 -13 27 -15 259 -15 146 0
265 2 265 5 0 3 -8 19 -18 35 -10 17 -32 55 -49 85 -68 122 -195 340 -198 340
-2 0 -22 -30 -43 -67z"/>
</g>
</svg>
